<svg width="100" height="30" viewBox="0 0 100 30" fill="none" xmlns="http://www.w3.org/2000/svg">
<path d="M42.6557 15.9231L35.9577 29.8846H31.0223C31.0223 29.8846 38.8954 13.3846 39.8355 11.5384C40.7756 9.6923 44.5358 9.6923 45.4759 11.5384C46.416 13.3846 54.1716 29.8846 54.1716 29.8846H38.1904L40.3055 25.6154H47.2385L42.6557 15.9231Z" fill="#17A0D6"/>
<path d="M88.4841 15.9231L81.7861 29.8846H76.8508C76.8508 29.8846 84.7239 13.3846 85.6639 11.5384C86.604 9.6923 90.3643 9.6923 91.3043 11.5384C92.2444 13.3846 100 29.8846 100 29.8846H84.0188L86.134 25.6154H93.067L88.4841 15.9231Z" fill="#17A0D6"/>
<path d="M59.1069 10.3846H75.5582V14.8846H60.047V25.6154H71.2103V22.2692H66.6275V18H75.5582V25.9615C75.5582 27.6923 73.678 30 71.4454 30H60.282C57.6968 30 55.5817 27.9231 55.5817 25.9615V14.8846C55.5817 12.5769 57.3443 10.3846 59.1069 10.3846Z" fill="#17A0D6"/>
<path d="M7.9906 7.84615H14.1011V13.8461H7.9906V7.84615Z" fill="#F89321"/>
<path d="M12.8258 13.4793L13.9241 12.3925L19.6775 17.9986L18.5793 19.0854L12.8258 13.4793Z" fill="#F89321"/>
<path d="M18.5664 18H23.0317V22.3846H18.5664V18Z" fill="#F89321"/>
<path d="M0 9.23076H2.11516V11.3077H0V9.23076Z" fill="#F89321"/>
<path d="M0.940071 1.15385H3.05523V3.23077H0.940071V1.15385Z" fill="#F89321"/>
<path d="M10.1058 0H12.2209V2.07692H10.1058V0Z" fill="#F89321"/>
<path d="M4.23032 4.15384H8.22562V7.84615H4.23032V4.15384Z" fill="#17A0D6"/>
<path d="M14.9236 10.3846H31.8449V14.7692H17.2738L14.9236 12.4615V10.3846Z" fill="#17A0D6"/>
<path d="M12.926 14.5385H9.98825V18C9.98825 21.5769 12.3384 22.2692 14.3361 22.2692H17.8613V19.5L16.4512 18H14.3361V15.9231L12.926 14.5385Z" fill="#17A0D6"/>
<path d="M25.4994 25.6154H9.98825V29.8846H25.4994C29.1422 29.8846 29.8472 26.7692 29.8472 25.6154V22.2692C29.8472 20.8846 29.2597 18 25.4994 18H23.7368V22.2692H25.4994V25.6154Z" fill="#17A0D6"/>
<rect x="4.23035" y="13.8461" width="3.76028" height="3.6923" fill="#189FD6"/>
<rect x="14.1011" y="4.15387" width="3.76028" height="3.69231" fill="#17A0D6"/>
</svg>
