<svg width="587" height="154" viewBox="0 0 587 154" fill="none" xmlns="http://www.w3.org/2000/svg">
<rect x="12.6832" y="40.7791" width="11.9786" height="11.2494" fill="#17A0D6"/>
<rect x="42.2775" y="11.2494" width="11.9786" height="11.2494" fill="#17A0D6"/>
<path d="M127.889 48.513L107.808 91.0499H93.0104C93.0104 91.0499 116.615 40.7791 119.434 35.1544C122.252 29.5297 133.526 29.5297 136.345 35.1544C139.163 40.779 162.416 91.0499 162.416 91.0499H114.501L120.843 78.0427H141.63L127.889 48.513Z" fill="#17A0D6"/>
<path d="M265.291 48.513L245.209 91.0499H230.412C230.412 91.0499 254.017 40.7791 256.836 35.1544C259.654 29.5297 270.928 29.5297 273.747 35.1544C276.565 40.779 299.818 91.0499 299.818 91.0499H251.903L258.245 78.0427H279.031L265.291 48.513Z" fill="#17A0D6"/>
<path d="M177.213 31.639H226.537V45.3492H180.032V78.0428H213.501V67.848H199.761V54.8409H226.537V79.0975C226.537 84.3706 220.9 91.4015 214.206 91.4015H180.736C172.985 91.4015 166.644 85.0737 166.644 79.0975V45.3492C166.644 38.3184 171.928 31.639 177.213 31.639Z" fill="#17A0D6"/>
<path d="M23.9572 23.905H42.2775V42.1853H23.9572V23.905Z" fill="#F89321"/>
<path d="M38.454 41.0675L41.7468 37.7565L58.9967 54.8367L55.7039 58.1477L38.454 41.0675Z" fill="#F89321"/>
<path d="M55.6653 54.8409H69.0532V68.1995H55.6653V54.8409Z" fill="#F89321"/>
<path d="M0 28.1235H6.34162V34.4513H0V28.1235Z" fill="#F89321"/>
<path d="M2.8185 3.51544H9.16012V9.84323H2.8185V3.51544Z" fill="#F89321"/>
<path d="M30.2989 0H36.6405V6.32779H30.2989V0Z" fill="#F89321"/>
<path d="M12.6832 12.6556H24.6619V23.905H12.6832V12.6556Z" fill="#17A0D6"/>
<path d="M44.7437 31.639H95.4766V44.9976H51.7899L44.7437 37.9668V31.639Z" fill="#17A0D6"/>
<path d="M38.7543 44.2945H29.9465V54.8409C29.9465 65.7387 36.9928 67.848 42.9821 67.848H53.5515V59.4109L49.3237 54.8409H42.9821V48.5131L38.7543 44.2945Z" fill="#17A0D6"/>
<path d="M76.4518 78.0428H29.9465V91.0499H76.4518C87.3734 91.0499 89.4873 81.5582 89.4873 78.0428V67.848C89.4873 63.6295 87.7257 54.8409 76.4518 54.8409H71.1671V67.848H76.4518V78.0428Z" fill="#17A0D6"/>
<path d="M307.515 90.5758V77.7914H353.567V67.4257C353.567 67.4257 320.424 67.0802 315.888 67.0802C311.353 67.0802 307.515 63.9705 307.515 58.4421V44.6211C307.515 32.8733 313.446 31.4912 322.168 31.4912H372.756V44.6211H320.424V54.6413C320.424 54.6413 342.054 55.3323 353.567 55.3323C365.081 55.3323 366.825 64.316 366.825 68.1167C366.825 71.9175 367.049 70.5354 366.825 77.7914C366.601 85.0474 366.214 90.5758 353.567 90.5758H307.515Z" fill="#F89321"/>
<path d="M381.877 78.7251L381.877 32.2616H395.225V78.7251H428.595V32.2616H441.591V78.7251C441.591 84.1485 439.901 91.4015 428.595 91.4015H395.927C385.82 91.4015 381.877 84.3961 381.877 78.7251Z" fill="#F89321"/>
<path d="M455.112 91.4015V32.2616H468.632V91.4015H455.112Z" fill="#F89321"/>
<path d="M542.994 91.4015V32.2616H556.514H586.934V45.0938H556.514V56.8102H586.934V67.9687H556.514V79.1272H586.934V91.4015H556.514H542.994Z" fill="#F89321"/>
<path d="M476.519 45.2124V32.2615L532.853 32.2615V45.2124L510.32 45.2124V90.2855H496.799V45.2124L476.519 45.2124Z" fill="#F89321"/>
</svg>
